<svg width="104" height="108" viewBox="0 0 104 108" fill="none" xmlns="http://www.w3.org/2000/svg">
    <g filter="url(#filter0_d_0_45)">
        <path
            d="M51.9811 64.5319C52.5635 64.5319 53.1423 64.5402 53.6119 64.5573C53.8472 64.5658 54.0499 64.5766 54.2086 64.5885C54.2877 64.5945 54.352 64.6004 54.401 64.6061C54.4331 64.6098 54.4532 64.6123 54.4635 64.6139C54.559 64.6365 54.6449 64.6636 54.7174 64.694C54.7848 64.7223 54.8297 64.7494 54.8571 64.7692C54.8192 65.0223 54.6548 65.2925 54.3678 65.4919L54.3453 65.5075L54.3239 65.5251C53.7917 65.9399 53.1678 66.201 52.5162 66.2966C52.1465 66.3437 51.7922 66.3442 51.4498 66.2975C50.7961 66.2022 50.1725 65.9403 49.6422 65.5251L49.6188 65.5065L49.5934 65.4889L49.483 65.404C49.2647 65.2179 49.1377 64.9874 49.1051 64.7692C49.1324 64.7493 49.1771 64.7224 49.2448 64.694C49.3171 64.6637 49.4033 64.6365 49.4987 64.6139C49.5087 64.6123 49.529 64.61 49.5621 64.6061C49.6112 64.6004 49.6754 64.5945 49.7545 64.5885C49.9132 64.5766 50.1159 64.5658 50.3512 64.5573C50.8207 64.5402 51.3988 64.5319 51.9811 64.5319ZM51.941 41.6667H52.0602C54.388 41.6667 56.7598 42.7098 58.2682 44.4245L58.5582 44.777L58.5602 44.7799C59.5039 45.9952 59.943 47.1795 59.943 49.1608V49.7282C59.943 50.6565 60.0656 51.4506 60.3531 52.1911C60.6399 52.9293 61.0689 53.5569 61.6002 54.1774L61.5992 54.1784L61.609 54.1882C62.1206 54.7689 62.3336 55.5623 62.3336 56.6081C62.3336 57.5392 62.033 58.4035 61.441 59.1071C60.6576 59.9418 59.5713 60.4952 58.4576 60.6423L58.234 60.6657L58.2311 60.6667C56.142 60.8448 54.0804 60.9919 52.0006 60.9919C49.903 60.9919 47.8471 60.9024 45.7985 60.6686L45.7828 60.6676L45.7672 60.6657L45.5426 60.6423C44.4278 60.495 43.3419 59.9413 42.5602 59.1071C41.9677 58.403 41.6666 57.5384 41.6666 56.6081C41.6666 55.5635 41.8802 54.7696 42.3912 54.1882L42.3903 54.1872C42.9428 53.5613 43.3753 52.9303 43.6598 52.1872C43.9443 51.4436 44.0582 50.6491 44.0582 49.7282V49.1608C44.0582 47.1393 44.5448 45.8967 45.5436 44.6491C47.0584 42.7967 49.5141 41.6667 51.941 41.6667Z"
            stroke="white" stroke-width="2" shape-rendering="crispEdges" />
    </g>
    <defs>
        <filter id="filter0_d_0_45" x="0.666626" y="0.666668" width="102.667" height="106.667"
            filterUnits="userSpaceOnUse" color-interpolation-filters="sRGB">
            <feFlood flood-opacity="0" result="BackgroundImageFix" />
            <feColorMatrix in="SourceAlpha" type="matrix"
                values="0 0 0 0 0 0 0 0 0 0 0 0 0 0 0 0 0 0 127 0" result="hardAlpha" />
            <feOffset />
            <feGaussianBlur stdDeviation="20" />
            <feComposite in2="hardAlpha" operator="out" />
            <feColorMatrix type="matrix"
                values="0 0 0 0 0 0 0 0 0 0.933333 0 0 0 0 0.772549 0 0 0 0.4 0" />
            <feBlend mode="normal" in2="BackgroundImageFix" result="effect1_dropShadow_0_45" />
            <feBlend mode="normal" in="SourceGraphic" in2="effect1_dropShadow_0_45" result="shape" />
        </filter>
    </defs>
</svg>