<svg fill="none" height="24" viewBox="0 0 24 24" width="24" xmlns="http://www.w3.org/2000/svg">
    <path
        d="m12 16v-4m0-4h.01m-4.21 13h8.4c1.6802 0 2.5202 0 3.162-.327.5645-.2876 1.0234-.7465 1.311-1.311.327-.6418.327-1.4818.327-3.162v-8.4c0-1.68016 0-2.52024-.327-3.16197-.2876-.56449-.7465-1.02343-1.311-1.31105-.6418-.32698-1.4818-.32698-3.162-.32698h-8.4c-1.68016 0-2.52024 0-3.16197.32698-.56449.28762-1.02343.74656-1.31105 1.31105-.32698.64173-.32698 1.48181-.32698 3.16197v8.4c0 1.6802 0 2.5202.32698 3.162.28762.5645.74656 1.0234 1.31105 1.311.64173.327 1.48181.327 3.16197.327z"
        stroke="#000" stroke-linecap="round" stroke-linejoin="round" stroke-width="2" />
</svg>